<svg width="4985" height="1145" viewBox="0 0 4985 1145" fill="none" xmlns="http://www.w3.org/2000/svg">
<path fill-rule="evenodd" clip-rule="evenodd" d="M150 395V995H1050V395H150ZM25 245C11.1929 245 0 256.193 0 270V1120C0 1133.81 11.1929 1145 25 1145H1175C1188.81 1145 1200 1133.81 1200 1120V270C1200 256.193 1188.81 245 1175 245H25ZM149.996 283L150 358L70 283H149.996ZM1050 283H150V358H1050L1130 283H1050L1050 358V283ZM150 1035L149.996 1110H70L150 1035ZM150 1110H1050V1035L1050 1110H1130L1050 1035H150V1110ZM38 394.996L113 395L38 315V394.996ZM113 395V995H38V395H113ZM38 995.004L113 995L38 1075V995.004ZM1094 395L1169 394.996V315L1094 395ZM1094 995V395H1169V995H1094ZM1094 995L1169 1075V995.004L1094 995Z" fill="#587752"/>
<path d="M590.759 15.5554C596.652 11.6061 604.348 11.6061 610.241 15.5554L943.279 238.712C957.646 248.338 950.831 270.75 933.538 270.75H267.462C250.169 270.75 243.354 248.338 257.721 238.712L590.759 15.5554Z" stroke="#587752" stroke-width="15"/>
<path fill-rule="evenodd" clip-rule="evenodd" d="M892.174 665L604.5 808L316.826 665H200V935H600H1000V665H892.174ZM600 935L300 935L300 785L600 935ZM600 935L900 785V935L600 935Z" fill="#587752"/>
<path fill-rule="evenodd" clip-rule="evenodd" d="M892.174 456L604.5 599L316.826 456H200V576H300L600 726L900 576H1000V456H892.174Z" fill="#587752"/>
<circle cx="600" cy="79" r="20" fill="#587752"/>
<path d="M1415.4 883V463H1452L1644 790.6H1624.8L1815 463H1851.6V883H1809V529.6H1819.2L1644 829.6H1623L1446.6 529.6H1458V883H1415.4ZM2176.85 883V813.4L2175.05 802V685.6C2175.05 658.8 2167.45 638.2 2152.25 623.8C2137.45 609.4 2115.25 602.2 2085.65 602.2C2065.25 602.2 2045.85 605.6 2027.45 612.4C2009.05 619.2 1993.45 628.2 1980.65 639.4L1961.45 607.6C1977.45 594 1996.65 583.6 2019.05 576.4C2041.45 568.8 2065.05 565 2089.85 565C2130.65 565 2162.05 575.2 2184.05 595.6C2206.45 615.6 2217.65 646.2 2217.65 687.4V883H2176.85ZM2068.25 886C2044.65 886 2024.05 882.2 2006.45 874.6C1989.25 866.6 1976.05 855.8 1966.85 842.2C1957.65 828.2 1953.05 812.2 1953.05 794.2C1953.05 777.8 1956.85 763 1964.45 749.8C1972.45 736.2 1985.25 725.4 2002.85 717.4C2020.85 709 2044.85 704.8 2074.85 704.8H2183.45V736.6H2076.05C2045.65 736.6 2024.45 742 2012.45 752.8C2000.85 763.6 1995.05 777 1995.05 793C1995.05 811 2002.05 825.4 2016.05 836.2C2030.05 847 2049.65 852.4 2074.85 852.4C2098.85 852.4 2119.45 847 2136.65 836.2C2154.25 825 2167.05 809 2175.05 788.2L2184.65 817.6C2176.65 838.4 2162.65 855 2142.65 867.4C2123.05 879.8 2098.25 886 2068.25 886ZM2333.35 883V568H2375.95V883H2333.35ZM2354.95 498.4C2346.15 498.4 2338.75 495.4 2332.75 489.4C2326.75 483.4 2323.75 476.2 2323.75 467.8C2323.75 459.4 2326.75 452.4 2332.75 446.8C2338.75 440.8 2346.15 437.8 2354.95 437.8C2363.75 437.8 2371.15 440.6 2377.15 446.2C2383.15 451.8 2386.15 458.8 2386.15 467.2C2386.15 476 2383.15 483.4 2377.15 489.4C2371.55 495.4 2364.15 498.4 2354.95 498.4ZM2494.49 883V437.8H2537.09V883H2494.49ZM2861.25 666.4H3083.25V704.8H2861.25V666.4ZM2866.05 883H2821.65V463H3109.65V501.4H2866.05V883ZM3186.48 883V568H3227.28V653.8L3223.08 638.8C3231.88 614.8 3246.68 596.6 3267.48 584.2C3288.28 571.4 3314.08 565 3344.88 565V606.4C3343.28 606.4 3341.68 606.4 3340.08 606.4C3338.48 606 3336.88 605.8 3335.28 605.8C3302.08 605.8 3276.08 616 3257.28 636.4C3238.48 656.4 3229.08 685 3229.08 722.2V883H3186.48ZM3596.57 883V813.4L3594.77 802V685.6C3594.77 658.8 3587.17 638.2 3571.97 623.8C3557.17 609.4 3534.97 602.2 3505.37 602.2C3484.97 602.2 3465.57 605.6 3447.17 612.4C3428.77 619.2 3413.17 628.2 3400.37 639.4L3381.17 607.6C3397.17 594 3416.37 583.6 3438.77 576.4C3461.17 568.8 3484.77 565 3509.57 565C3550.37 565 3581.77 575.2 3603.77 595.6C3626.17 615.6 3637.37 646.2 3637.37 687.4V883H3596.57ZM3487.97 886C3464.37 886 3443.77 882.2 3426.17 874.6C3408.97 866.6 3395.77 855.8 3386.57 842.2C3377.37 828.2 3372.77 812.2 3372.77 794.2C3372.77 777.8 3376.57 763 3384.17 749.8C3392.17 736.2 3404.97 725.4 3422.57 717.4C3440.57 709 3464.57 704.8 3494.57 704.8H3603.17V736.6H3495.77C3465.37 736.6 3444.17 742 3432.17 752.8C3420.57 763.6 3414.77 777 3414.77 793C3414.77 811 3421.77 825.4 3435.77 836.2C3449.77 847 3469.37 852.4 3494.57 852.4C3518.57 852.4 3539.17 847 3556.37 836.2C3573.97 825 3586.77 809 3594.77 788.2L3604.37 817.6C3596.37 838.4 3582.37 855 3562.37 867.4C3542.77 879.8 3517.97 886 3487.97 886ZM4146.68 565C4172.28 565 4194.48 570 4213.28 580C4232.48 589.6 4247.28 604.4 4257.68 624.4C4268.48 644.4 4273.88 669.6 4273.88 700V883H4231.28V704.2C4231.28 671 4223.28 646 4207.28 629.2C4191.68 612 4169.48 603.4 4140.68 603.4C4119.08 603.4 4100.28 608 4084.28 617.2C4068.68 626 4056.48 639 4047.68 656.2C4039.28 673 4035.08 693.4 4035.08 717.4V883H3992.48V704.2C3992.48 671 3984.48 646 3968.48 629.2C3952.48 612 3930.08 603.4 3901.28 603.4C3880.08 603.4 3861.48 608 3845.48 617.2C3829.48 626 3817.08 639 3808.28 656.2C3799.88 673 3795.68 693.4 3795.68 717.4V883H3753.08V568H3793.88V653.2L3787.28 638.2C3796.88 615.4 3812.28 597.6 3833.48 584.8C3855.08 571.6 3880.48 565 3909.68 565C3940.48 565 3966.68 572.8 3988.28 588.4C4009.88 603.6 4023.88 626.6 4030.28 657.4L4013.48 650.8C4022.68 625.2 4038.88 604.6 4062.08 589C4085.68 573 4113.88 565 4146.68 565ZM4523.21 886C4490.41 886 4461.61 879.2 4436.81 865.6C4412.01 851.6 4392.61 832.6 4378.61 808.6C4364.61 784.2 4357.61 756.4 4357.61 725.2C4357.61 694 4364.21 666.4 4377.41 642.4C4391.01 618.4 4409.41 599.6 4432.61 586C4456.21 572 4482.61 565 4511.81 565C4541.41 565 4567.61 571.8 4590.41 585.4C4613.61 598.6 4631.81 617.4 4645.01 641.8C4658.21 665.8 4664.81 693.6 4664.81 725.2C4664.81 727.2 4664.61 729.4 4664.21 731.8C4664.21 733.8 4664.21 736 4664.21 738.4H4390.01V706.6H4641.41L4624.61 719.2C4624.61 696.4 4619.61 676.2 4609.61 658.6C4600.01 640.6 4586.81 626.6 4570.01 616.6C4553.21 606.6 4533.81 601.6 4511.81 601.6C4490.21 601.6 4470.81 606.6 4453.61 616.6C4436.41 626.6 4423.01 640.6 4413.41 658.6C4403.81 676.6 4399.01 697.2 4399.01 720.4V727C4399.01 751 4404.21 772.2 4414.61 790.6C4425.41 808.6 4440.21 822.8 4459.01 833.2C4478.21 843.2 4500.01 848.2 4524.41 848.2C4543.61 848.2 4561.41 844.8 4577.81 838C4594.61 831.2 4609.01 820.8 4621.01 806.8L4645.01 834.4C4631.01 851.2 4613.41 864 4592.21 872.8C4571.41 881.6 4548.41 886 4523.21 886ZM4836.12 886C4810.12 886 4785.52 882.4 4762.32 875.2C4739.12 867.6 4720.92 858.2 4707.72 847L4726.92 813.4C4739.72 823 4756.12 831.4 4776.12 838.6C4796.12 845.4 4817.12 848.8 4839.12 848.8C4869.12 848.8 4890.72 844.2 4903.92 835C4917.12 825.4 4923.72 812.8 4923.72 797.2C4923.72 785.6 4919.92 776.6 4912.32 770.2C4905.12 763.4 4895.52 758.4 4883.52 755.2C4871.52 751.6 4858.12 748.6 4843.32 746.2C4828.52 743.8 4813.72 741 4798.92 737.8C4784.52 734.6 4771.32 730 4759.32 724C4747.32 717.6 4737.52 709 4729.92 698.2C4722.72 687.4 4719.12 673 4719.12 655C4719.12 637.8 4723.92 622.4 4733.52 608.8C4743.12 595.2 4757.12 584.6 4775.52 577C4794.32 569 4817.12 565 4843.92 565C4864.32 565 4884.72 567.8 4905.12 573.4C4925.52 578.6 4942.32 585.6 4955.52 594.4L4936.92 628.6C4922.92 619 4907.92 612.2 4891.92 608.2C4875.92 603.8 4859.92 601.6 4843.92 601.6C4815.52 601.6 4794.52 606.6 4780.92 616.6C4767.72 626.2 4761.12 638.6 4761.12 653.8C4761.12 665.8 4764.72 675.2 4771.92 682C4779.52 688.8 4789.32 694.2 4801.32 698.2C4813.72 701.8 4827.12 704.8 4841.52 707.2C4856.32 709.6 4870.92 712.6 4885.32 716.2C4900.12 719.4 4913.52 724 4925.52 730C4937.92 735.6 4947.72 743.8 4954.92 754.6C4962.52 765 4966.32 778.8 4966.32 796C4966.32 814.4 4961.12 830.4 4950.72 844C4940.72 857.2 4925.92 867.6 4906.32 875.2C4887.12 882.4 4863.72 886 4836.12 886Z" fill="#587752"/>
</svg>
